<svg width="129" height="44" viewBox="0 0 129 44" fill="none" xmlns="http://www.w3.org/2000/svg">
<path d="M16.0901 23.28H19.1801V30.48C19.1801 32.16 20.0901 32.5 21.2001 31.24L28.7701 22.64C29.7001 21.59 29.3101 20.72 27.9001 20.72H24.8101V13.52C24.8101 11.84 23.9001 11.5 22.7901 12.76L15.2201 21.36C14.3001 22.42 14.6901 23.28 16.0901 23.28Z" fill="#33C877"/>
<path d="M37.9545 15.8636H41.8864L43.5 22.4545H43.6364L47.4318 15.8636H51.3636L49.4318 27.5H46.3409L47.4545 20.7727H47.3636L43.6818 27.4091H41.8182L40.3409 20.7273H40.25L39.1136 27.5H36.0227L37.9545 15.8636ZM55.1335 27.6591C54.2017 27.6591 53.429 27.4811 52.8153 27.125C52.2017 26.7652 51.7699 26.25 51.5199 25.5795C51.2699 24.9053 51.2244 24.0985 51.3835 23.1591C51.535 22.2576 51.8475 21.4697 52.321 20.7955C52.7983 20.1212 53.3987 19.5966 54.1222 19.2216C54.8494 18.8466 55.6638 18.6591 56.5653 18.6591C57.2244 18.6591 57.8021 18.7614 58.2983 18.9659C58.7983 19.1705 59.2055 19.4678 59.5199 19.858C59.8343 20.2481 60.0464 20.7197 60.1562 21.2727C60.2699 21.822 60.2699 22.4432 60.1562 23.1364L60.0426 23.8636H52.2472L52.5199 22.1364H57.429C57.4669 21.8864 57.4422 21.6667 57.3551 21.4773C57.2718 21.2841 57.1373 21.1345 56.9517 21.0284C56.7699 20.9186 56.5502 20.8636 56.2926 20.8636C56.035 20.8636 55.7926 20.9186 55.5653 21.0284C55.3419 21.1383 55.1506 21.2917 54.9915 21.4886C54.8362 21.6856 54.732 21.9167 54.679 22.1818L54.3381 24C54.2926 24.2803 54.3097 24.5303 54.3892 24.75C54.4688 24.9697 54.607 25.142 54.804 25.267C55.0009 25.392 55.2547 25.4545 55.5653 25.4545C55.7775 25.4545 55.9782 25.4261 56.1676 25.3693C56.3608 25.3087 56.5313 25.2216 56.679 25.108C56.8305 24.9905 56.9517 24.8485 57.0426 24.6818H59.9062C59.7017 25.2879 59.3778 25.8144 58.9347 26.2614C58.4953 26.7045 57.9536 27.0492 57.3097 27.2955C56.6695 27.5379 55.9441 27.6591 55.1335 27.6591ZM67.3679 18.7727L66.9815 21.0455H61.2315L61.6179 18.7727H67.3679ZM63.0724 16.6818H66.2088L64.8793 24.6932C64.8603 24.8144 64.8641 24.9167 64.8906 25C64.9171 25.0795 64.9702 25.1402 65.0497 25.1818C65.133 25.2197 65.2429 25.2386 65.3793 25.2386C65.4702 25.2386 65.5819 25.2273 65.7145 25.2045C65.8471 25.178 65.9474 25.1591 66.0156 25.1477L66.1065 27.3523C65.9474 27.3977 65.7334 27.4489 65.4645 27.5057C65.1993 27.5663 64.8906 27.6061 64.5384 27.625C63.8035 27.6591 63.205 27.5814 62.7429 27.392C62.2846 27.2027 61.9664 26.9072 61.7884 26.5057C61.6141 26.1004 61.5838 25.5947 61.6974 24.9886L63.0724 16.6818ZM71.2585 27.6591C70.3267 27.6591 69.554 27.4811 68.9403 27.125C68.3267 26.7652 67.8949 26.25 67.6449 25.5795C67.3949 24.9053 67.3494 24.0985 67.5085 23.1591C67.66 22.2576 67.9725 21.4697 68.446 20.7955C68.9233 20.1212 69.5237 19.5966 70.2472 19.2216C70.9744 18.8466 71.7888 18.6591 72.6903 18.6591C73.3494 18.6591 73.9271 18.7614 74.4233 18.9659C74.9233 19.1705 75.3305 19.4678 75.6449 19.858C75.9593 20.2481 76.1714 20.7197 76.2812 21.2727C76.3949 21.822 76.3949 22.4432 76.2812 23.1364L76.1676 23.8636H68.3722L68.6449 22.1364H73.554C73.5919 21.8864 73.5672 21.6667 73.4801 21.4773C73.3968 21.2841 73.2623 21.1345 73.0767 21.0284C72.8949 20.9186 72.6752 20.8636 72.4176 20.8636C72.16 20.8636 71.9176 20.9186 71.6903 21.0284C71.4669 21.1383 71.2756 21.2917 71.1165 21.4886C70.9612 21.6856 70.857 21.9167 70.804 22.1818L70.4631 24C70.4176 24.2803 70.4347 24.5303 70.5142 24.75C70.5938 24.9697 70.732 25.142 70.929 25.267C71.1259 25.392 71.3797 25.4545 71.6903 25.4545C71.9025 25.4545 72.1032 25.4261 72.2926 25.3693C72.4858 25.3087 72.6563 25.2216 72.804 25.108C72.9555 24.9905 73.0767 24.8485 73.1676 24.6818H76.0312C75.8267 25.2879 75.5028 25.8144 75.0597 26.2614C74.6203 26.7045 74.0786 27.0492 73.4347 27.2955C72.7945 27.5379 72.0691 27.6591 71.2585 27.6591ZM76.8338 27.5L78.2884 18.7727H81.3338L81.0611 20.4318H81.152C81.4134 19.8182 81.741 19.3693 82.1349 19.0852C82.5289 18.8011 82.9588 18.6591 83.4247 18.6591C83.5611 18.6591 83.6918 18.6705 83.8168 18.6932C83.9455 18.7121 84.0724 18.7386 84.1974 18.7727L83.7429 21.4545C83.5952 21.3977 83.4115 21.358 83.1918 21.3352C82.9721 21.3087 82.777 21.2955 82.6065 21.2955C82.3035 21.2955 82.0194 21.3655 81.7543 21.5057C81.4929 21.642 81.2694 21.8352 81.0838 22.0852C80.902 22.3314 80.7808 22.6212 80.7202 22.9545L79.9702 27.5H76.8338ZM85.6577 15.8636H89.5895L91.2031 22.4545H91.3395L95.1349 15.8636H99.0668L97.1349 27.5H94.044L95.1577 20.7727H95.0668L91.3849 27.4091H89.5213L88.044 20.7273H87.9531L86.8168 27.5H83.7259L85.6577 15.8636ZM102.837 27.6591C101.905 27.6591 101.132 27.4811 100.518 27.125C99.9048 26.7652 99.473 26.25 99.223 25.5795C98.973 24.9053 98.9276 24.0985 99.0866 23.1591C99.2382 22.2576 99.5507 21.4697 100.024 20.7955C100.501 20.1212 101.102 19.5966 101.825 19.2216C102.553 18.8466 103.367 18.6591 104.268 18.6591C104.928 18.6591 105.505 18.7614 106.001 18.9659C106.501 19.1705 106.909 19.4678 107.223 19.858C107.537 20.2481 107.75 20.7197 107.859 21.2727C107.973 21.822 107.973 22.4432 107.859 23.1364L107.746 23.8636H99.9503L100.223 22.1364H105.132C105.17 21.8864 105.145 21.6667 105.058 21.4773C104.975 21.2841 104.84 21.1345 104.655 21.0284C104.473 20.9186 104.253 20.8636 103.996 20.8636C103.738 20.8636 103.496 20.9186 103.268 21.0284C103.045 21.1383 102.854 21.2917 102.695 21.4886C102.539 21.6856 102.435 21.9167 102.382 22.1818L102.041 24C101.996 24.2803 102.013 24.5303 102.092 24.75C102.172 24.9697 102.31 25.142 102.507 25.267C102.704 25.392 102.958 25.4545 103.268 25.4545C103.481 25.4545 103.681 25.4261 103.871 25.3693C104.064 25.3087 104.234 25.2216 104.382 25.108C104.534 24.9905 104.655 24.8485 104.746 24.6818H107.609C107.405 25.2879 107.081 25.8144 106.638 26.2614C106.198 26.7045 105.657 27.0492 105.013 27.2955C104.373 27.5379 103.647 27.6591 102.837 27.6591ZM112.389 22.5909L111.571 27.5H108.435L109.889 18.7727H112.866L112.594 20.4318H112.685C112.961 19.875 113.365 19.4413 113.895 19.1307C114.429 18.8163 115.018 18.6591 115.662 18.6591C116.279 18.6591 116.793 18.7992 117.202 19.0795C117.611 19.3598 117.901 19.7462 118.071 20.2386C118.241 20.7311 118.272 21.2955 118.162 21.9318L117.23 27.5H114.094L114.912 22.5909C114.984 22.1591 114.931 21.8201 114.753 21.5739C114.579 21.3277 114.291 21.2045 113.889 21.2045C113.635 21.2045 113.402 21.2614 113.19 21.375C112.982 21.4848 112.808 21.6439 112.668 21.8523C112.531 22.0568 112.438 22.303 112.389 22.5909Z" fill="white"/>
</svg>
